<svg xmlns="http://www.w3.org/2000/svg" width="38" height="50" viewBox="0 0 38 50" fill="none"><path d="M20.2898 17.7252C11.8726 20.3336 7.12598 29.561 7.50862 42.3318C9.25425 40.8576 8.78395 37.6401 11.5419 37.29C11.795 37.571 12.1367 37.7331 12.1519 37.8369C11.4362 41.2807 10.78 44.7688 9.90106 48.1835C9.5933 49.3416 8.40851 49.9388 7.33787 49.1412C5.13711 47.5018 2.83257 45.8775 0.983878 43.0206C2.57106 43.0006 3.68359 42.997 4.42528 42.9946C4.62082 39.2557 4.505 35.5624 5.10173 32.03C6.40933 23.5704 10.839 17.2515 19.0172 14.095C20.3209 13.5864 20.7337 12.784 21.1452 11.6108C22.7902 6.54705 26.2056 3.07964 31.2585 1.38699C33.0812 0.802542 35.1709 0.232064 37.2843 2.3613C33.5606 2.26955 30.7607 3.42085 28.3049 5.47592C25.953 7.51582 24.0768 9.91019 23.5827 13.0566C26.1531 14.324 28.7817 15.2648 30.923 16.86C33.1086 18.3956 35.103 20.4362 36.6379 22.597C38.2323 24.8021 37.7813 27.5182 36.1698 29.1848C34.6178 30.8958 32.1268 31.2599 29.6159 30.0368C25.6192 28.0769 22.9086 24.7629 21.2487 20.6592C20.9489 19.696 20.5896 18.6884 20.2898 17.7252ZM23.344 17.2258C24.3824 21.7913 26.7804 24.78 30.2733 26.9196C31.4326 27.5982 32.7248 28.0983 33.759 26.8341C34.6604 25.7483 34.167 24.5483 33.3925 23.6014C31.0237 20.4495 27.8573 18.3682 23.344 17.2258Z" fill="#FFA700"></path></svg>